<svg xmlns="http://www.w3.org/2000/svg" viewBox="0 0 32 32" width="32" height="32">
  <rect width="32" height="32" fill="#0066cc" rx="4"/>

  <!-- Code block lines representing developer theme -->
  <rect x="4" y="4" width="8" height="2" rx="1" fill="#16F1BE"/>
  <rect x="14" y="4" width="14" height="2" rx="1" fill="#FF6B6B"/>

  <rect x="2" y="8" width="12" height="2" rx="1" fill="#4ECDC4"/>
  <rect x="16" y="8" width="8" height="2" rx="1" fill="#FFE66D"/>

  <rect x="6" y="12" width="6" height="2" rx="1" fill="#FF9F43"/>
  <rect x="14" y="12" width="16" height="2" rx="1" fill="#A8E6CF"/>

  <rect x="3" y="16" width="4" height="2" rx="1" fill="#06B6D4"/>
  <rect x="9" y="16" width="10" height="2" rx="1" fill="#EC4899"/>
  <rect x="21" y="16" width="8" height="2" rx="1" fill="#84CC16"/>

  <rect x="2" y="20" width="16" height="2" rx="1" fill="#22C55E"/>
  <rect x="20" y="20" width="10" height="2" rx="1" fill="#F43F5E"/>

  <rect x="5" y="24" width="8" height="2" rx="1" fill="#A855F7"/>
  <rect x="15" y="24" width="12" height="2" rx="1" fill="#EAB308"/>

  <rect x="8" y="28" width="16" height="2" rx="1" fill="#3B82F6"/>
</svg>